<?xml version="1.0" encoding="utf-8"?>
<!-- Generator: Adobe Illustrator 18.1.1, SVG Export Plug-In . SVG Version: 6.00 Build 0)  -->
<svg version="1.1" id="Layer_1" xmlns="http://www.w3.org/2000/svg" xmlns:xlink="http://www.w3.org/1999/xlink" x="0px" y="0px"
	 viewBox="0 0 60 60" enable-background="new 0 0 60 60" xml:space="preserve">
<g>
	<path fill="#3497DA" d="M57.4,42.9c0,2.7-0.9,4.9-2.8,6.8l-4.9,4.9c-1.9,1.9-4.1,2.8-6.8,2.8s-5-0.9-6.8-2.8l-7-7.1
		c-1.9-1.9-2.8-4.1-2.8-6.8c0-2.7,1-5.1,2.9-7l-2.9-2.9c-1.9,2-4.2,2.9-7,2.9c-2.7,0-5-0.9-6.8-2.8l-7-7c-1.9-1.9-2.8-4.2-2.8-6.8
		c0-2.7,0.9-4.9,2.8-6.8l4.9-4.9c1.9-1.9,4.1-2.8,6.8-2.8s5,0.9,6.8,2.8l6.9,6.9c1.9,1.9,2.8,4.1,2.8,6.8s-1,5.1-2.9,7l2.9,2.9
		c1.9-2,4.2-2.9,7-2.9c2.7,0,5,0.9,6.8,2.8l7,7C56.5,37.9,57.4,40.2,57.4,42.9z M27.4,19.3c0-0.9-0.3-1.7-0.9-2.3l-7-7
		C18.9,9.3,18.1,9,17.2,9s-1.6,0.3-2.3,0.9L10,14.8c-0.6,0.6-0.9,1.4-0.9,2.2c0,0.9,0.3,1.7,0.9,2.3l7,7c0.6,0.6,1.4,0.9,2.3,0.9
		s1.7-0.3,2.4-1c-0.1-0.1-0.3-0.3-0.6-0.6c-0.4-0.3-0.6-0.6-0.7-0.7c-0.1-0.1-0.3-0.3-0.5-0.6c-0.2-0.3-0.4-0.6-0.4-0.9
		c-0.1-0.3-0.1-0.6-0.1-0.9c0-0.9,0.3-1.7,0.9-2.3c0.6-0.6,1.4-0.9,2.3-0.9c0.3,0,0.6,0,0.9,0.1c0.3,0.1,0.6,0.2,0.9,0.4
		c0.3,0.2,0.5,0.4,0.6,0.5c0.1,0.1,0.4,0.4,0.7,0.7c0.3,0.4,0.6,0.6,0.6,0.6C27,21,27.4,20.2,27.4,19.3z M51,42.9
		c0-0.9-0.3-1.7-0.9-2.3l-7-7c-0.6-0.6-1.4-0.9-2.3-0.9c-0.9,0-1.7,0.4-2.4,1.1c0.1,0.1,0.3,0.3,0.6,0.6c0.4,0.3,0.6,0.6,0.7,0.7
		c0.1,0.1,0.3,0.3,0.5,0.6s0.4,0.6,0.4,0.9c0.1,0.3,0.1,0.6,0.1,0.9c0,0.9-0.3,1.7-0.9,2.3c-0.6,0.6-1.4,0.9-2.3,0.9
		c-0.3,0-0.6,0-0.9-0.1c-0.3-0.1-0.6-0.2-0.9-0.4c-0.3-0.2-0.5-0.4-0.6-0.5c-0.1-0.1-0.4-0.4-0.7-0.7c-0.3-0.4-0.6-0.6-0.6-0.6
		c-0.7,0.7-1.1,1.5-1.1,2.4s0.3,1.7,0.9,2.3l6.9,6.9c0.6,0.6,1.4,0.9,2.3,0.9c0.9,0,1.7-0.3,2.3-0.9l4.9-4.9
		C50.7,44.6,51,43.8,51,42.9z"/>
</g>
</svg>
