<?xml version="1.0" encoding="utf-8"?>
<!-- Generator: Adobe Illustrator 18.1.1, SVG Export Plug-In . SVG Version: 6.00 Build 0)  -->
<svg version="1.1" id="Layer_1" xmlns="http://www.w3.org/2000/svg" xmlns:xlink="http://www.w3.org/1999/xlink" x="0px" y="0px"
	 viewBox="0 0 60 60" enable-background="new 0 0 60 60" xml:space="preserve">
<g>
	<path fill="#3497DA" d="M57.5,33.4v17.3c0,0.6-0.2,1.2-0.7,1.6c-0.5,0.5-1,0.7-1.6,0.7H4.8c-0.6,0-1.2-0.2-1.6-0.7
		c-0.5-0.5-0.7-1-0.7-1.6V33.4c0-1.5,0.3-2.9,0.9-4.4l8.5-19.8c0.2-0.6,0.7-1.1,1.3-1.5c0.6-0.4,1.3-0.6,1.9-0.6h29.8
		c0.6,0,1.2,0.2,1.9,0.6c0.6,0.4,1.1,0.9,1.3,1.5L56.6,29C57.2,30.4,57.5,31.9,57.5,33.4z M39.1,32.3h11.3c0-0.1-0.1-0.2-0.1-0.3
		c0-0.1-0.1-0.2-0.1-0.3L42.7,14H17.3L9.7,31.7c0,0-0.1,0.1-0.1,0.3c0,0.1-0.1,0.2-0.1,0.3h11.3l3.4,6.9h11.5L39.1,32.3z"/>
</g>
</svg>
