<?xml version="1.0" encoding="utf-8"?>
<!-- Generator: Adobe Illustrator 18.1.1, SVG Export Plug-In . SVG Version: 6.00 Build 0)  -->
<svg version="1.1" id="Layer_1" xmlns="http://www.w3.org/2000/svg" xmlns:xlink="http://www.w3.org/1999/xlink" x="0px" y="0px"
	 viewBox="0 0 60 60" enable-background="new 0 0 60 60" xml:space="preserve">
<g>
	<path fill="#3497DA" d="M57.5,12.6v34.8c0,1.3-0.4,2.3-1.3,3.2c-0.9,0.9-2,1.3-3.2,1.3H7.1c-1.3,0-2.3-0.4-3.2-1.3
		c-0.9-0.9-1.3-2-1.3-3.2V12.6c0-1.3,0.4-2.3,1.3-3.2C4.7,8.4,5.8,8,7.1,8h45.8c1.3,0,2.3,0.4,3.2,1.3
		C57.1,10.2,57.5,11.3,57.5,12.6z M52.9,11.7H7.1c-0.2,0-0.5,0.1-0.6,0.3c-0.2,0.2-0.3,0.4-0.3,0.6v34.8c0,0.2,0.1,0.5,0.3,0.6
		c0.2,0.2,0.4,0.3,0.6,0.3h45.8c0.2,0,0.5-0.1,0.6-0.3c0.2-0.2,0.3-0.4,0.3-0.6V12.6c0-0.2-0.1-0.5-0.3-0.6
		C53.4,11.8,53.2,11.7,52.9,11.7z M19.2,16.9c1.1,1.1,1.6,2.4,1.6,3.9c0,1.5-0.5,2.8-1.6,3.9c-1.1,1.1-2.4,1.6-3.9,1.6
		c-1.5,0-2.8-0.5-3.9-1.6c-1.1-1.1-1.6-2.4-1.6-3.9c0-1.5,0.5-2.8,1.6-3.9s2.4-1.6,3.9-1.6C16.9,15.3,18.2,15.9,19.2,16.9z
		 M50.2,31.8v12.8H9.8v-5.5L19,30l4.6,4.6l14.7-14.7L50.2,31.8z"/>
</g>
</svg>
