<?xml version="1.0" encoding="utf-8"?>
<!-- Generator: Adobe Illustrator 18.1.1, SVG Export Plug-In . SVG Version: 6.00 Build 0)  -->
<svg version="1.1" id="Layer_1" xmlns="http://www.w3.org/2000/svg" xmlns:xlink="http://www.w3.org/1999/xlink" x="0px" y="0px"
	 viewBox="0 0 60 60" enable-background="new 0 0 60 60" xml:space="preserve">
<g>
	<path fill="#3497DA" d="M51.5,14.2c0.6,0.6,1.1,1.4,1.5,2.3s0.6,1.9,0.6,2.7v35.4c0,0.8-0.3,1.5-0.9,2.1c-0.6,0.6-1.3,0.9-2.1,0.9
		H9.4c-0.8,0-1.5-0.3-2.1-0.9c-0.6-0.6-0.9-1.3-0.9-2.1V5.4c0-0.8,0.3-1.5,0.9-2.1c0.6-0.6,1.3-0.9,2.1-0.9h27.5
		c0.8,0,1.7,0.2,2.7,0.6c1,0.4,1.8,0.9,2.3,1.5L51.5,14.2z M49.6,53.6V22.1H36.9c-0.8,0-1.5-0.3-2.1-0.9c-0.6-0.6-0.9-1.3-0.9-2.1
		V6.4H10.4v47.1H49.6z M37.9,6.7v11.5h11.5c-0.2-0.6-0.4-1-0.7-1.3l-9.6-9.6C38.9,7.1,38.5,6.9,37.9,6.7z"/>
</g>
</svg>
